<?xml version="1.0" encoding="UTF-8" standalone="no"?><svg xmlns="http://www.w3.org/2000/svg" xmlns:xlink= "http://www.w3.org/1999/xlink" width="600" height="390" style="overflow: hidden;" aria-label="A chart."><defs id="_ABSTRACT_RENDERER_ID_4"><filter id="_ABSTRACT_RENDERER_ID_5"><feGaussianBlur in="SourceAlpha" stdDeviation="2"></feGaussianBlur><feOffset dx="1" dy="1"></feOffset><feComponentTransfer><feFuncA type="linear" slope="0.1"></feFuncA></feComponentTransfer><feMerge><feMergeNode></feMergeNode><feMergeNode in="SourceGraphic"></feMergeNode></feMerge></filter></defs><rect x="0" y="0" width="600" height="390" stroke="none" stroke-width="0" fill="#ffffff"></rect><g><text text-anchor="start" x="115" y="52.05" font-family="Arial" font-size="13" font-weight="bold" stroke="none" stroke-width="0" fill="#000000">Nixpkgs python packages</text><rect x="115" y="41" width="371" height="13" stroke="none" stroke-width="0" fill-opacity="0" fill="#ffffff"></rect></g><g><path d="M301,196L288.55213827054274,76.64736811295565A120,120,0,0,1,301,76L301,196A0,0,0,0,0,301,196" stroke="#ffffff" stroke-width="1" fill="#990099"></path></g><g><path d="M301,196L286.56479543548903,76.87139357324487A120,120,0,0,1,288.55213827054286,76.64736811295565L301,196A0,0,0,0,0,301,196" stroke="#ffffff" stroke-width="1" fill="#109618"></path></g><g><path d="M301,196L275.4333842729214,78.75517853540866A120,120,0,0,1,286.56479543548903,76.87139357324487L301,196A0,0,0,0,0,301,196" stroke="#ffffff" stroke-width="1" fill="#ff9900"></path></g><g><path d="M301,196L189.78598852705233,241.0715392692003A120,120,0,0,1,275.4333842729214,78.75517853540866L301,196A0,0,0,0,0,301,196" stroke="#ffffff" stroke-width="1" fill="#dc3912"></path><text text-anchor="start" x="205.4712112242666" y="158.84989092293137" font-family="Arial" font-size="13" stroke="none" stroke-width="0" fill="#ffffff">1,776</text></g><g><path d="M301,196L301,76A120,120,0,1,1,189.78598852705233,241.0715392692003L301,196A0,0,0,1,0,301,196" stroke="#ffffff" stroke-width="1" fill="#3366cc"></path><text text-anchor="start" x="358.82140235879046" y="250.62272199198736" font-family="Arial" font-size="13" stroke="none" stroke-width="0" fill="#ffffff">4,414</text></g><g><g><g><text text-anchor="end" x="486" y="223.0153893695921" font-family="Arial" font-size="13" stroke="none" stroke-width="0" fill="#222222">up to</text><text text-anchor="end" x="486" y="240.03269468479607" font-family="Arial" font-size="13" stroke="none" stroke-width="0" fill="#222222">date</text></g><g><text text-anchor="end" x="486" y="261.06730531520395" font-family="Arial" font-size="13" stroke="none" stroke-width="0" fill="#9e9e9e">68.9%</text></g></g><g><path d="M376.5,246.5L434,246.5L434,246.5L486.5,246.5" stroke="#636363" stroke-width="1" stroke-opacity="0.7" fill-opacity="1" fill="none"></path><circle cx="376.5" cy="246.5" r="2" stroke="none" stroke-width="0" fill-opacity="0.7" fill="#636363"></circle></g><g><g><text text-anchor="start" x="115" y="148.03269468479607" font-family="Arial" font-size="13" stroke="none" stroke-width="0" fill="#222222">outdated</text></g><g><text text-anchor="start" x="115" y="169.06730531520395" font-family="Arial" font-size="13" stroke="none" stroke-width="0" fill="#9e9e9e">27.7%</text></g></g><g><path d="M221.5,154.5L168,154.5L168,154.5L115.5,154.5" stroke="#636363" stroke-width="1" stroke-opacity="0.7" fill-opacity="1" fill="none"></path><circle cx="221.5" cy="154.5" r="2" stroke="none" stroke-width="0" fill-opacity="0.7" fill="#636363"></circle></g><g><g><text text-anchor="start" x="115" y="86.01538936959209" font-family="Arial" font-size="13" stroke="none" stroke-width="0" fill="#222222">pypi</text><text text-anchor="start" x="115" y="103.03269468479604" font-family="Arial" font-size="13" stroke="none" stroke-width="0" fill="#222222">error</text></g><g><text text-anchor="start" x="115" y="124.06730531520395" font-family="Arial" font-size="13" stroke="none" stroke-width="0" fill="#9e9e9e">1.7%</text></g></g><g><path d="M296.5,106.5L168,106.5L168,109.5L115.5,109.5" stroke="#636363" stroke-width="1" stroke-opacity="0.7" fill-opacity="1" fill="none"></path><circle cx="296.5" cy="106.5" r="2" stroke="none" stroke-width="0" fill-opacity="0.7" fill="#636363"></circle></g></g><g></g></svg>