<?xml version="1.0" encoding="UTF-8" standalone="no"?><svg xmlns="http://www.w3.org/2000/svg" xmlns:xlink= "http://www.w3.org/1999/xlink" width="600" height="390" style="overflow: hidden;" aria-label="A chart."><defs id="_ABSTRACT_RENDERER_ID_3"><filter id="_ABSTRACT_RENDERER_ID_4"><feGaussianBlur in="SourceAlpha" stdDeviation="2"></feGaussianBlur><feOffset dx="1" dy="1"></feOffset><feComponentTransfer><feFuncA type="linear" slope="0.1"></feFuncA></feComponentTransfer><feMerge><feMergeNode></feMergeNode><feMergeNode in="SourceGraphic"></feMergeNode></feMerge></filter></defs><rect x="0" y="0" width="600" height="390" stroke="none" stroke-width="0" fill="#ffffff"></rect><g><text text-anchor="start" x="115" y="52.05" font-family="Arial" font-size="13" font-weight="bold" stroke="none" stroke-width="0" fill="#000000">Nixpkgs python packages</text><rect x="115" y="41" width="371" height="13" stroke="none" stroke-width="0" fill-opacity="0" fill="#ffffff"></rect></g><g><path d="M301,196L288.221243293938,76.68234255967276A120,120,0,0,1,301,76L301,196A0,0,0,0,0,301,196" stroke="#ffffff" stroke-width="1" fill="#0099c6"></path></g><g><path d="M301,196L265.57112540048144,81.34924839055093A120,120,0,0,1,288.221243293938,76.68234255967276L301,196A0,0,0,0,0,301,196" stroke="#ffffff" stroke-width="1" fill="#990099"></path></g><g><path d="M301,196L263.6855790649671,81.94898514137115A120,120,0,0,1,265.57112540048144,81.34924839055093L301,196A0,0,0,0,0,301,196" stroke="#ffffff" stroke-width="1" fill="#109618"></path></g><g><path d="M301,196L253.02946758922786,86.00532730978713A120,120,0,0,1,263.6855790649671,81.94898514137115L301,196A0,0,0,0,0,301,196" stroke="#ffffff" stroke-width="1" fill="#ff9900"></path></g><g><path d="M301,196L181.13827894962543,190.24084842687802A120,120,0,0,1,253.02946758922786,86.00532730978713L301,196A0,0,0,0,0,301,196" stroke="#ffffff" stroke-width="1" fill="#dc3912"></path><text text-anchor="start" x="210.69934498630286" y="149.64972383256983" font-family="Arial" font-size="13" stroke="none" stroke-width="0" fill="#ffffff">1,146</text></g><g><path d="M301,196L301,76A120,120,0,1,1,181.13827894962543,190.24084842687802L301,196A0,0,0,1,0,301,196" stroke="#ffffff" stroke-width="1" fill="#3366cc"></path><text text-anchor="start" x="347.04259756219386" y="266.16981538121865" font-family="Arial" font-size="13" stroke="none" stroke-width="0" fill="#ffffff">4,908</text></g><g><g><g><text text-anchor="end" x="486" y="238.0153893695921" font-family="Arial" font-size="13" stroke="none" stroke-width="0" fill="#222222">up to</text><text text-anchor="end" x="486" y="255.03269468479607" font-family="Arial" font-size="13" stroke="none" stroke-width="0" fill="#222222">date</text></g><g><text text-anchor="end" x="486" y="276.06730531520395" font-family="Arial" font-size="13" stroke="none" stroke-width="0" fill="#9e9e9e">75.8%</text></g></g><g><path d="M363.5,261.5L434,261.5L434,261.5L486.5,261.5" stroke="#636363" stroke-width="1" stroke-opacity="0.7" fill-opacity="1" fill="none"></path><circle cx="363.5" cy="261.5" r="2" stroke="none" stroke-width="0" fill-opacity="0.7" fill="#636363"></circle></g><g><g><text text-anchor="start" x="115" y="157.03269468479607" font-family="Arial" font-size="13" stroke="none" stroke-width="0" fill="#222222">outdated</text></g><g><text text-anchor="start" x="115" y="178.06730531520395" font-family="Arial" font-size="13" stroke="none" stroke-width="0" fill="#9e9e9e">17.7%</text></g></g><g><path d="M217.5,163.5L168,163.5L168,163.5L115.5,163.5" stroke="#636363" stroke-width="1" stroke-opacity="0.7" fill-opacity="1" fill="none"></path><circle cx="217.5" cy="163.5" r="2" stroke="none" stroke-width="0" fill-opacity="0.7" fill="#636363"></circle></g><g><g><text text-anchor="start" x="115" y="85.99808405438813" font-family="Arial" font-size="13" stroke="none" stroke-width="0" fill="#222222">wrong</text><text text-anchor="start" x="115" y="103.01538936959209" font-family="Arial" font-size="13" stroke="none" stroke-width="0" fill="#222222">nix</text><text text-anchor="start" x="115" y="120.03269468479604" font-family="Arial" font-size="13" stroke="none" stroke-width="0" fill="#222222">version</text></g><g><text text-anchor="start" x="115" y="141.06730531520395" font-family="Arial" font-size="13" stroke="none" stroke-width="0" fill="#9e9e9e">3.1%</text></g></g><g><path d="M283.5,108.5L168,108.5L168,126.5L115.5,126.5" stroke="#636363" stroke-width="1" stroke-opacity="0.7" fill-opacity="1" fill="none"></path><circle cx="283.5" cy="108.5" r="2" stroke="none" stroke-width="0" fill-opacity="0.7" fill="#636363"></circle></g></g><g></g></svg>