<?xml version="1.0" encoding="UTF-8" standalone="no"?><svg xmlns="http://www.w3.org/2000/svg" xmlns:xlink= "http://www.w3.org/1999/xlink" width="600" height="390" style="overflow: hidden;" aria-label="A chart."><defs id="_ABSTRACT_RENDERER_ID_2"></defs><rect x="0" y="0" width="600" height="390" stroke="none" stroke-width="0" fill="#ffffff"></rect><g><text text-anchor="start" x="115" y="52.05" font-family="Arial" font-size="13" font-weight="bold" stroke="none" stroke-width="0" fill="#000000">Gentoo python packages</text><rect x="115" y="41" width="371" height="13" stroke="none" stroke-width="0" fill-opacity="0" fill="#ffffff"></rect></g><g><path d="M301,196L274.5378076187843,78.95405870180917A120,120,0,0,1,301,76L301,196A0,0,0,0,0,301,196" stroke="#ffffff" stroke-width="1" fill="#990099"></path><text text-anchor="start" x="282.95200858335994" y="101.58308572910228" font-family="Arial" font-size="13" stroke="none" stroke-width="0" fill="#ffffff">58</text></g><g><path d="M301,196L198.6441411772778,258.6360771813095A120,120,0,0,1,274.5378076187843,78.95405870180917L301,196A0,0,0,0,0,301,196" stroke="#ffffff" stroke-width="1" fill="#109618"></path><text text-anchor="start" x="203.10882056947804" y="163.8491089246836" font-family="Arial" font-size="13" stroke="none" stroke-width="0" fill="#ffffff">495</text></g><g><path d="M301,196L218.57977123813038,283.2175778776336A120,120,0,0,1,198.6441411772778,258.6360771813095L301,196A0,0,0,0,0,301,196" stroke="#ffffff" stroke-width="1" fill="#dc3912"></path><text text-anchor="start" x="218.29899286769327" y="261.94361839894935" font-family="Arial" font-size="13" stroke="none" stroke-width="0" fill="#ffffff">69</text></g><g><path d="M301,196L301,76A120,120,0,1,1,218.57977123813038,283.2175778776336L301,196A0,0,0,1,0,301,196" stroke="#ffffff" stroke-width="1" fill="#3366cc"></path><text text-anchor="start" x="367.44561296158827" y="233.54139226076973" font-family="Arial" font-size="13" stroke="none" stroke-width="0" fill="#ffffff">1,017</text></g><g><g><g><text text-anchor="end" x="486" y="206.0153893695921" font-family="Arial" font-size="13" stroke="none" stroke-width="0" fill="#222222">up to</text><text text-anchor="end" x="486" y="223.03269468479607" font-family="Arial" font-size="13" stroke="none" stroke-width="0" fill="#222222">date</text></g><g><text text-anchor="end" x="486" y="244.06730531520395" font-family="Arial" font-size="13" stroke="none" stroke-width="0" fill="#9e9e9e">62.1%</text></g></g><g><path d="M385.5,229.5L434,229.5L434,229.5L486.5,229.5" stroke="#636363" stroke-width="1" stroke-opacity="0.7" fill-opacity="1" fill="none"></path><circle cx="385.5" cy="229.5" r="2" stroke="none" stroke-width="0" fill-opacity="0.7" fill="#636363"></circle></g><g><g><text text-anchor="start" x="115" y="247.03269468479607" font-family="Arial" font-size="13" stroke="none" stroke-width="0" fill="#222222">outdated</text></g><g><text text-anchor="start" x="115" y="268.06730531520395" font-family="Arial" font-size="13" stroke="none" stroke-width="0" fill="#9e9e9e">4.2%</text></g></g><g><path d="M231.5,253.5L168,253.5L168,253.5L115.5,253.5" stroke="#636363" stroke-width="1" stroke-opacity="0.7" fill-opacity="1" fill="none"></path><circle cx="231.5" cy="253.5" r="2" stroke="none" stroke-width="0" fill-opacity="0.7" fill="#636363"></circle></g><g><g><text text-anchor="start" x="115" y="157.99808405438813" font-family="Arial" font-size="13" stroke="none" stroke-width="0" fill="#222222">wrong</text><text text-anchor="start" x="115" y="175.0153893695921" font-family="Arial" font-size="13" stroke="none" stroke-width="0" fill="#222222">gentoo</text><text text-anchor="start" x="115" y="192.03269468479607" font-family="Arial" font-size="13" stroke="none" stroke-width="0" fill="#222222">version</text></g><g><text text-anchor="start" x="115" y="213.06730531520395" font-family="Arial" font-size="13" stroke="none" stroke-width="0" fill="#9e9e9e">30.2%</text></g></g><g><path d="M211.5,198.5L168,198.5L168,198.5L115.5,198.5" stroke="#636363" stroke-width="1" stroke-opacity="0.7" fill-opacity="1" fill="none"></path><circle cx="211.5" cy="198.5" r="2" stroke="none" stroke-width="0" fill-opacity="0.7" fill="#636363"></circle></g><g><g><text text-anchor="start" x="115" y="85.99808405438813" font-family="Arial" font-size="13" stroke="none" stroke-width="0" fill="#222222">package</text><text text-anchor="start" x="115" y="103.01538936959209" font-family="Arial" font-size="13" stroke="none" stroke-width="0" fill="#222222">not</text><text text-anchor="start" x="115" y="120.03269468479604" font-family="Arial" font-size="13" stroke="none" stroke-width="0" fill="#222222">found</text></g><g><text text-anchor="start" x="115" y="141.06730531520395" font-family="Arial" font-size="13" stroke="none" stroke-width="0" fill="#9e9e9e">3.5%</text></g></g><g><path d="M291.5,107.5L168,107.5L168,126.5L115.5,126.5" stroke="#636363" stroke-width="1" stroke-opacity="0.7" fill-opacity="1" fill="none"></path><circle cx="291.5" cy="107.5" r="2" stroke="none" stroke-width="0" fill-opacity="0.7" fill="#636363"></circle></g></g><g></g></svg>